<?xml version="1.0" encoding="utf-8"?>
<svg version="1.1" xmlns="http://www.w3.org/2000/svg" width="108" height="108" viewBox="0 0 1080 1080">
    <path fill="#09f" d="M480 569v-49q0 -5 -3 -8t-8 -3h-73v-73q0 -5 -3 -8t-8 -3h-49q-5 0 -8 3t-3 8v73h-73q-5 0 -8 3t-3 8v49q0 5 3 8t8 3h73v73q0 5 3 8t8 3h49q5 0 8 -3t3 -8v-73h73q5 0 8 -3t3 -8zM702 594q0 -20 -14 -34t-34 -14t-34 14t-14 34t14 34t34 14t34 -14t14 -34zM801 495q0 -20 -14 -34t-34 -14t-34 14t-14 34t14 34t34 14t34 -14t14 -34zM899 545q0 81 -57 139t-139 57q-73 0 -130 -49h-84q-56 49 -130 49q-81 0 -139 -57t-57 -139t57 -139t139 -57h344q81 0 139 57t57 139z"></path>
</svg>